Coordinates
version=1
nRows=27
nColumns=19
inDegrees=yes

Units are S.I. units (second, meters, Newtons, ...)
If the header above contains a line with 'inDegrees', this indicates whether rotational values are in degrees (yes) or radians (no).

endheader
time	pelvis_tilt	pelvis_list	pelvis_rotation	pelvis_tx	pelvis_ty	pelvis_tz	hip_flexion_r	hip_adduction_r	hip_rotation_r	knee_angle_r	knee_angle_r_beta	ankle_angle_r	hip_flexion_l	hip_adduction_l	hip_rotation_l	knee_angle_l	knee_angle_l_beta	ankle_angle_l
     16.67333333	    -10.03458052	      3.86549868	     10.98338349	      2.25840065	      1.03848866	      1.04619736	    -11.04030331	     -8.04405755	    -20.96377455	     59.42412037	      1.03714656	    -21.49217635	     36.83390629	     10.05589976	     -1.82840422	     17.85344303	      0.31160136	      6.73845642
     16.68000000	     -9.15674768	      3.98243279	     11.15127887	      2.25716759	      1.03474890	      1.04699006	    -10.62198609	     -8.38572698	    -20.83532594	     62.58266844	      1.09227362	    -20.58077118	     36.70677035	      9.72720795	     -2.72583564	     21.29146831	      0.37160622	      6.63941383
     16.68666667	     -8.31772540	      4.05016995	     11.25035853	      2.25585225	      1.03065743	      1.04805133	    -10.01063495	     -8.67221905	    -20.55422936	     65.72138933	      1.14705463	    -19.54167529	     36.64720159	      9.24890614	     -3.56250305	     25.05189689	      0.43723808	      6.63518052
     16.69333333	     -7.18233440	      4.38187416	     11.45749032	      2.25453827	      1.02672320	      1.04920804	     -9.76550321	     -9.20477670	    -20.53376658	     68.74252538	      1.19978340	    -18.46000058	     36.11120842	      9.00832242	     -4.14271782	     28.83975718	      0.50334872	      6.81438959
     16.70000000	     -6.75698206	      4.17813267	     11.34662181	      2.25291624	      1.02175576	      1.05086263	     -8.25668588	     -9.19460499	    -19.70852286	     71.88032230	      1.25454829	    -17.29034443	     36.43469214	      8.19285438	     -4.58143501	     32.83615530	      0.57309902	      7.34466528
     16.70666667	     -5.82542882	      4.53693756	     11.49508207	      2.25135919	      1.01756290	      1.05224582	     -7.51291922	     -9.76282409	    -19.46186765	     74.80890394	      1.30566168	    -16.15134045	     35.83174273	      8.03847227	     -4.68557957	     36.46808543	      0.63648816	      8.20838817
     16.71333333	     -5.68201900	      4.34055988	     11.40198479	      2.24942480	      1.01258837	      1.05388100	     -5.42732469	     -9.78083927	    -18.55573501	     77.80274830	      1.35791413	    -15.04031842	     36.05346040	      7.41732077	     -4.57560967	     40.01129511	      0.69832884	      9.41104797
     16.72000000	     -5.06237650	      4.67777615	     11.53906466	      2.24754955	      1.00862477	      1.05518358	     -4.06329759	    -10.39095355	    -18.18030968	     80.55488719	      1.40594801	    -13.98948067	     35.31870206	      7.43113737	     -4.27191880	     43.02457561	      0.75092050	     11.06285396
     16.72666667	     -5.38838752	      4.52667061	     11.51895860	      2.24538660	      1.00396414	      1.05652070	     -1.24320951	    -10.56210294	    -17.29896872	     83.31591245	      1.45413699	    -13.09726514	     35.49424341	      7.09566673	     -3.88694149	     45.79059571	      0.79919666	     12.88209604
     16.73333333	     -5.46541224	      4.59087586	     11.56008569	      2.24323145	      1.00030880	      1.05762042	      1.26886588	    -11.00938279	    -16.64916242	     85.79667619	      1.49743449	    -12.26102289	     34.99038628	      7.02550214	     -3.39749348	     47.95800597	      0.83702511	     15.02620848
     16.74000000	     -5.21628952	      4.78393052	     11.66052851	      2.24116153	      0.99784826	      1.05844471	      3.40512221	    -11.54311671	    -16.11834899	     87.92521047	      1.53458442	    -11.51415941	     33.75889355	      7.08475328	     -2.84622493	     49.56860189	      0.86513531	     17.42023806
     16.74666667	     -6.06334535	      4.52782293	     11.52424343	      2.23892532	      0.99461181	      1.05931959	      7.11797629	    -11.76300272	    -15.18014071	     90.00505002	      1.57088447	    -10.87696567	     33.55818382	      6.75575752	     -2.44990787	     50.81515985	      0.88689185	     19.61054771
     16.75333333	     -6.42563065	      4.46363517	     11.33896348	      2.23697073	      0.99285010	      1.06005104	     10.22788674	    -12.09183287	    -14.33771484	     91.64431934	      1.59949511	    -10.27188155	     32.43320294	      6.51126206	     -2.11419882	     51.44867831	      0.89794883	     21.86594636
     16.76000000	     -6.78998996	      4.28501532	     11.06587135	      2.23522920	      0.99184143	      1.06065026	     13.36851241	    -12.26168364	    -13.51258654	     92.90357675	      1.62147330	     -9.68399230	     31.04615889	      6.11355543	     -1.81218858	     51.60645129	      0.90070249	     23.97784877
     16.76666667	     -7.09503175	      4.03112455	     10.66870661	      2.23378168	      0.99161637	      1.06112361	     16.42932472	    -12.30134502	    -12.72079924	     93.76262893	      1.63646659	     -9.09891145	     29.34406570	      5.57878160	     -1.59267829	     51.30577568	      0.89545471	     25.84857345
     16.77333333	     -7.30472499	      3.71774323	     10.19387436	      2.23271659	      0.99218051	      1.06142826	     19.30329287	    -12.20276345	    -12.01428917	     94.20357676	      1.64416258	     -8.49459520	     27.31432212	      4.93380287	     -1.46632280	     50.58892459	      0.88294330	     27.41644341
     16.78000000	     -7.43791734	      3.34294936	      9.52955887	      2.23209952	      0.99349743	      1.06168083	     21.99825084	    -11.99504688	    -11.38191685	     94.21940906	      1.64443891	     -7.85303269	     24.99754069	      4.17220269	     -1.47749922	     49.49506198	      0.86385180	     28.55985494
     16.78666667	     -7.41845706	      2.96467757	      8.69378030	      2.23199086	      0.99563435	      1.06195639	     24.39268348	    -11.63385891	    -10.76537406	     93.81760805	      1.63742616	     -7.17252997	     22.31309126	      3.32348462	     -1.75698578	     48.02296657	      0.83815888	     29.20600295
     16.79333333	     -7.10307989	      2.58851875	      7.79880394	      2.23233243	      0.99863929	      1.06206334	     26.25340732	    -11.22521937	    -10.35165275	     93.00312429	      1.62321073	     -6.43961965	     19.13670202	      2.49035138	     -2.12702758	     46.22019331	      0.80669455	     29.38052098
     16.80000000	     -6.55198338	      2.17957780	      6.86311485	      2.23320308	      1.00245580	      1.06203382	     27.61847620	    -10.74464110	    -10.15820324	     91.77367786	      1.60175285	     -5.64870890	     15.56047541	      1.67451343	     -2.56104918	     44.11471786	      0.76994708	     28.98424917
     16.80666667	     -5.91380166	      1.72170724	      5.89671825	      2.23446819	      1.00672258	      1.06196608	     28.67737609	    -10.16347287	    -10.12021071	     90.18786322	      1.57407516	     -4.83869183	     11.80250711	      0.89692650	     -3.06137280	     41.79755580	      0.72950497	     27.99263878
     16.81333333	     -5.25462199	      1.20600999	      4.98278511	      2.23605065	      1.01129643	      1.06174215	     29.48281709	     -9.55408110	    -10.33152180	     88.28215472	      1.54081427	     -4.00150989	      7.97746839	      0.17471575	     -3.56083866	     39.32057010	      0.68627341	     26.37206652
     16.82000000	     -4.71636732	      0.64160743	      4.01232320	      2.23783954	      1.01589976	      1.06162387	     30.26341822	     -8.83585332	    -10.61816625	     86.11060828	      1.50291364	     -3.20272379	      4.27479388	     -0.50676721	     -4.21437948	     36.75030350	      0.64141380	     24.15340999
     16.82666667	     -4.11140147	      0.05330320	      3.32366822	      2.23989719	      1.02077500	      1.06118862	     30.67360388	     -8.24054334	    -11.33027304	     83.62383095	      1.45951118	     -2.43106803	      0.54563430	     -1.08989011	     -4.58214092	     34.11848716	      0.59547994	     21.28150363
     16.83333333	     -3.72155890	     -0.55600325	      2.63424813	      2.24210782	      1.02548671	      1.06086901	     31.16634243	     -7.57383002	    -12.11328803	     80.89942356	      1.41196130	     -1.71005294	     -2.88817847	     -1.63028488	     -5.03797209	     31.49646207	      0.54971697	     17.88159283
     16.84000000	     -3.60903778	     -1.14529142	      1.94258334	      2.24433941	      1.02988558	      1.06072875	     31.82903682	     -6.85616141	    -12.91676417	     77.96031432	      1.36066417	     -1.13543632	     -5.88570485	     -2.11275566	     -5.62775758	     29.00771503	      0.50628014	     13.95191599
     16.84666667	     -3.50225412	     -1.75080709	      1.51211690	      2.24665583	      1.03436953	      1.06041277	     32.25928905	     -6.22438034	    -14.05639593	     74.74210724	      1.30449586	     -0.57548951	     -8.71999760	     -2.60476164	     -5.99176374	     26.62243705	      0.46464918	      9.64468911
